<?xml version="1.0" encoding="UTF-8" standalone="no"?>
<svg xmlns:dc="http://purl.org/dc/elements/1.1/" xmlns:cc="http://creativecommons.org/ns#" xmlns:rdf="http://www.w3.org/1999/02/22-rdf-syntax-ns#" xmlns:svg="http://www.w3.org/2000/svg" xmlns="http://www.w3.org/2000/svg" xmlns:sodipodi="http://sodipodi.sourceforge.net/DTD/sodipodi-0.dtd" xmlns:inkscape="http://www.inkscape.org/namespaces/inkscape" enable-background="new 0 0 28.539 29.123" height="29.123px" id="Capa_1" version="1.1" viewBox="0 0 28.539 29.123" width="28.539px" xml:space="preserve" sodipodi:docname="refresh.svg" inkscape:version="0.92.3 (2405546, 2018-03-11)"><metadata
     id="metadata13"><rdf:RDF><cc:Work
         rdf:about=""><dc:format>image/svg+xml</dc:format><dc:type
           rdf:resource="http://purl.org/dc/dcmitype/StillImage" /></cc:Work></rdf:RDF></metadata><defs
     id="defs11" /><sodipodi:namedview
     pagecolor="#ffffff"
     bordercolor="#666666"
     borderopacity="1"
     objecttolerance="10"
     gridtolerance="10"
     guidetolerance="10"
     inkscape:pageopacity="0"
     inkscape:pageshadow="2"
     inkscape:window-width="1920"
     inkscape:window-height="1028"
     id="namedview9"
     showgrid="false"
     inkscape:zoom="8.103561"
     inkscape:cx="14.2695"
     inkscape:cy="14.5615"
     inkscape:window-x="1272"
     inkscape:window-y="-8"
     inkscape:window-maximized="1"
     inkscape:current-layer="Capa_1" /><g
     id="g6"
     style="fill:#ffffff;fill-opacity:1"><path
       d="M7.63,7.938c3.215-3.215,8.132-3.674,11.847-1.402c-1.259,1.246-2.711,2.702-2.711,2.702   c-1.016,1.219,0.125,1.922,0.705,1.904l6.789-0.002c0.358,0,0.651,0.002,0.651,0.002s0.296,0,0.655,0h1.317   c0.359,0,0.651-0.293,0.652-0.653V1.154c0.042-0.854-0.896-1.682-1.864-0.729c0,0-1.602,1.561-2.708,2.657   C17.305-1.051,9.331-0.583,4.22,4.528C1.238,7.51-0.153,11.466,0.014,15.373h4.83C4.673,12.703,5.589,9.979,7.63,7.938z"
       id="path2"
       style="fill:#ffffff;fill-opacity:1" /><path
       d="M23.695,13.75c0.171,2.67-0.745,5.394-2.786,7.435c-3.216,3.215-8.131,3.674-11.846,1.402   c1.258-1.246,2.71-2.702,2.71-2.702c1.016-1.219-0.125-1.922-0.705-1.903l-6.789,0.002c-0.358,0-0.651-0.002-0.651-0.002   s-0.296,0-0.655,0H1.654c-0.359,0-0.651,0.293-0.652,0.652v9.335c-0.041,0.853,0.896,1.681,1.865,0.728   c0,0,1.601-1.561,2.708-2.656c5.66,4.134,13.633,3.666,18.743-1.445c2.981-2.982,4.373-6.938,4.207-10.845H23.695z"
       id="path4"
       style="fill:#ffffff;fill-opacity:1" /></g></svg>
