<?xml version="1.0" encoding="UTF-8" standalone="no"?>
<svg
   xmlns:dc="http://purl.org/dc/elements/1.1/"
   xmlns:cc="http://creativecommons.org/ns#"
   xmlns:rdf="http://www.w3.org/1999/02/22-rdf-syntax-ns#"
   xmlns:svg="http://www.w3.org/2000/svg"
   xmlns="http://www.w3.org/2000/svg"
   xmlns:sodipodi="http://sodipodi.sourceforge.net/DTD/sodipodi-0.dtd"
   xmlns:inkscape="http://www.inkscape.org/namespaces/inkscape"
   width="16"
   height="16"
   viewBox="0 0 16 16"
   version="1.1"
   id="svg4"
   sodipodi:docname="unmute.svg"
   inkscape:version="0.92.3 (2405546, 2018-03-11)">
  <metadata
     id="metadata10">
    <rdf:RDF>
      <cc:Work
         rdf:about="">
        <dc:format>image/svg+xml</dc:format>
        <dc:type
           rdf:resource="http://purl.org/dc/dcmitype/StillImage" />
        <dc:title></dc:title>
      </cc:Work>
    </rdf:RDF>
  </metadata>
  <defs
     id="defs8" />
  <sodipodi:namedview
     pagecolor="#ffffff"
     bordercolor="#666666"
     borderopacity="1"
     objecttolerance="10"
     gridtolerance="10"
     guidetolerance="10"
     inkscape:pageopacity="0"
     inkscape:pageshadow="2"
     inkscape:window-width="790"
     inkscape:window-height="530"
     id="namedview6"
     showgrid="false"
     inkscape:zoom="14.75"
     inkscape:cx="8"
     inkscape:cy="8"
     inkscape:window-x="1535"
     inkscape:window-y="500"
     inkscape:window-maximized="0"
     inkscape:current-layer="svg4" />
  <path
     d="m 11,8.02 c 0,1.09 -0.45,2.09 -1.17,2.83 L 9.16,10.18 C 9.71,9.62 10.05,8.87 10.05,8.02 10.05,7.17 9.71,6.41 9.16,5.86 L 9.83,5.19 A 3.99,3.99 0 0 1 11,8.02 Z M 6.72,2.28 3,6 H 1 C 0.45,6 0,6.45 0,7 v 2 c 0,0.55 0.45,1 1,1 h 2 l 3.72,3.72 C 7.19,14.19 8,13.86 8,13.19 V 2.81 C 8,2.14 7.19,1.81 6.72,2.28 Z m 5.94,0.08 -0.67,0.67 a 6.996,6.996 0 0 1 2.06,4.98 c 0,1.94 -0.78,3.7 -2.06,4.98 l 0.67,0.67 A 7.973,7.973 0 0 0 15,8 C 15,5.78 14.11,3.78 12.66,2.34 Z m -1.41,1.41 -0.69,0.67 a 5.05,5.05 0 0 1 1.48,3.58 c 0,1.39 -0.56,2.66 -1.48,3.56 l 0.69,0.67 A 5.971,5.971 0 0 0 13,8.02 C 13,6.37 12.33,4.86 11.25,3.77 Z"
     id="path2"
     inkscape:connector-curvature="0"
     style="fill:#3d5dff;fill-rule:evenodd" />
</svg>
